<svg xmlns="http://www.w3.org/2000/svg" version="1.1" xmlns:xlink="http://www.w3.org/1999/xlink" xmlns:svgjs="http://svgjs.com/svgjs" width="512" height="512" x="0" y="0" viewBox="0 0 504 504" style="enable-background:new 0 0 512 512" xml:space="preserve" class=""><g><path d="M377.6 0H126C56.8 0 0 56.8 0 126.4V378c0 69.2 56.8 126 126 126h251.6c69.6 0 126.4-56.8 126.4-126.4V126.4C504 56.8 447.2 0 377.6 0zm-58 252H272v156h-60V252h-32v-64h28v-27.2c0-25.6 12.8-66 66.8-66H324V148h-34.8c-5.6 0-13.2 3.6-13.2 16v24h49.2l-5.6 64z" fill="#f385aa" data-original="#000000" class=""></path></g></svg>