<svg xmlns="http://www.w3.org/2000/svg" version="1.1" xmlns:xlink="http://www.w3.org/1999/xlink" xmlns:svgjs="http://svgjs.com/svgjs" width="512" height="512" x="0" y="0" viewBox="0 0 512 512" style="enable-background:new 0 0 512 512" xml:space="preserve" class=""><g><path d="M301 256c0 24.852-20.148 45-45 45s-45-20.148-45-45 20.148-45 45-45 45 20.148 45 45zm0 0" fill="#f385aa" data-original="#000000" class=""></path><path d="M332 120H180c-33.086 0-60 26.914-60 60v152c0 33.086 26.914 60 60 60h152c33.086 0 60-26.914 60-60V180c0-33.086-26.914-60-60-60zm-76 211c-41.355 0-75-33.645-75-75s33.645-75 75-75 75 33.645 75 75-33.645 75-75 75zm86-146c-8.285 0-15-6.715-15-15s6.715-15 15-15 15 6.715 15 15-6.715 15-15 15zm0 0" fill="#f385aa" data-original="#000000" class=""></path><path d="M377 0H135C60.562 0 0 60.563 0 135v242c0 74.438 60.563 135 135 135h242c74.438 0 135-60.563 135-135V135C512 60.562 451.437 0 377 0zm45 332c0 49.625-40.375 90-90 90H180c-49.625 0-90-40.375-90-90V180c0-49.625 40.375-90 90-90h152c49.625 0 90 40.375 90 90zm0 0" fill="#f385aa" data-original="#000000" class=""></path></g></svg>