<svg xmlns="http://www.w3.org/2000/svg" version="1.1" xmlns:xlink="http://www.w3.org/1999/xlink" xmlns:svgjs="http://svgjs.com/svgjs" width="512" height="512" x="0" y="0" viewBox="0 0 438.536 438.536" style="enable-background:new 0 0 512 512" xml:space="preserve" class=""><g><path d="M414.41 24.123C398.333 8.042 378.963 0 356.315 0H82.228C59.58 0 40.21 8.042 24.126 24.123 8.045 40.207.003 59.576.003 82.225v274.084c0 22.647 8.042 42.018 24.123 58.102 16.084 16.084 35.454 24.126 58.102 24.126h274.084c22.648 0 42.018-8.042 58.095-24.126 16.084-16.084 24.126-35.454 24.126-58.102V82.225c-.001-22.649-8.043-42.021-24.123-58.102zm-78.939 144.612c.191 1.713.288 4.278.288 7.71 0 15.989-2.334 32.025-6.995 48.104-4.661 16.087-11.8 31.504-21.416 46.254-9.606 14.749-21.074 27.791-34.396 39.115-13.325 11.32-29.311 20.365-47.968 27.117-18.648 6.762-38.637 10.143-59.953 10.143-33.116 0-63.76-8.952-91.931-26.836 4.568.568 9.329.855 14.275.855 27.6 0 52.439-8.565 74.519-25.7-12.941-.185-24.506-4.179-34.688-11.991-10.185-7.803-17.273-17.699-21.271-29.691 4.947.76 8.658 1.137 11.132 1.137 4.187 0 9.042-.76 14.56-2.279-13.894-2.669-25.598-9.562-35.115-20.697-9.519-11.136-14.277-23.84-14.277-38.114v-.571c10.085 4.755 19.602 7.229 28.549 7.422-17.321-11.613-25.981-28.265-25.981-49.963 0-10.66 2.758-20.747 8.278-30.264 15.035 18.464 33.311 33.213 54.816 44.252 21.507 11.038 44.54 17.227 69.092 18.558-.95-3.616-1.427-8.186-1.427-13.704 0-16.562 5.853-30.692 17.56-42.399 11.703-11.706 25.837-17.561 42.394-17.561 17.515 0 32.079 6.283 43.688 18.846 13.134-2.474 25.892-7.33 38.26-14.56-4.757 14.652-13.613 25.788-26.55 33.402 12.368-1.716 23.88-4.95 34.537-9.708-7.993 12.181-17.989 22.554-29.98 31.123z" fill="#f385aa" data-original="#000000" class=""></path></g></svg>