<svg xmlns="http://www.w3.org/2000/svg" version="1.1" xmlns:xlink="http://www.w3.org/1999/xlink" xmlns:svgjs="http://svgjs.com/svgjs" width="512" height="512" x="0" y="0" viewBox="0 0 682.667 682.667" style="enable-background:new 0 0 512 512" xml:space="preserve" class=""><g><defs><clipPath id="a" clipPathUnits="userSpaceOnUse"><path d="M0 512h512V0H0Z" fill="#f385aa" data-original="#000000"></path></clipPath></defs><g clip-path="url(#a)" transform="matrix(1.33333 0 0 -1.33333 0 682.667)"><path d="M0 0h-90.076l55.562 96.831h16.212l-.359-139.167" style="stroke-width:30;stroke-linecap:square;stroke-linejoin:miter;stroke-miterlimit:3;stroke-dasharray:none;stroke-opacity:1" transform="translate(497 98.919)" fill="none" stroke="#f385aa" stroke-width="30" stroke-linecap="square" stroke-linejoin="miter" stroke-miterlimit="3" stroke-dasharray="none" stroke-opacity="" data-original="#000000" class=""></path><path d="m0 0-69.645.213.017 4.512s14.453 15.166 48.71 64.112c8.11 11.588 12.575 21.365 14.474 29.557l.673 5.266c0 19.24-15.597 34.838-34.837 34.838-16.931 0-31.04-12.077-34.184-28.085" style="stroke-width:30;stroke-linecap:square;stroke-linejoin:miter;stroke-miterlimit:10;stroke-dasharray:none;stroke-opacity:1" transform="translate(376.57 56.92)" fill="none" stroke="#f385aa" stroke-width="30" stroke-linecap="square" stroke-linejoin="miter" stroke-miterlimit="10" stroke-dasharray="none" stroke-opacity="" data-original="#000000" class=""></path><path d="M0 0v-46.25c-99.826 0-180.75 80.924-180.75 180.75S-99.826 315.25 0 315.25s180.75-80.924 180.75-180.75H134.5" style="stroke-width:30;stroke-linecap:butt;stroke-linejoin:miter;stroke-miterlimit:10;stroke-dasharray:none;stroke-opacity:1" transform="translate(256 121.5)" fill="none" stroke="#f385aa" stroke-width="30" stroke-linecap="butt" stroke-linejoin="miter" stroke-miterlimit="10" stroke-dasharray="none" stroke-opacity="" data-original="#000000" class=""></path><path d="M0 0c0-16.638-13.487-30.125-30.125-30.125C-46.763-30.125-60.25-16.638-60.25 0c0 16.638 13.487 30.125 30.125 30.125C-13.487 30.125 0 16.638 0 0Z" style="stroke-width:30;stroke-linecap:butt;stroke-linejoin:miter;stroke-miterlimit:10;stroke-dasharray:none;stroke-opacity:1" transform="translate(286.125 256)" fill="none" stroke="#f385aa" stroke-width="30" stroke-linecap="butt" stroke-linejoin="miter" stroke-miterlimit="10" stroke-dasharray="none" stroke-opacity="" data-original="#000000" class=""></path><path d="M0 0v-46.25" style="stroke-width:30;stroke-linecap:butt;stroke-linejoin:miter;stroke-miterlimit:10;stroke-dasharray:none;stroke-opacity:1" transform="translate(256 436.75)" fill="none" stroke="#f385aa" stroke-width="30" stroke-linecap="butt" stroke-linejoin="miter" stroke-miterlimit="10" stroke-dasharray="none" stroke-opacity="" data-original="#000000" class=""></path><path d="M0 0h-46.25" style="stroke-width:30;stroke-linecap:butt;stroke-linejoin:miter;stroke-miterlimit:10;stroke-dasharray:none;stroke-opacity:1" transform="translate(121.5 256)" fill="none" stroke="#f385aa" stroke-width="30" stroke-linecap="butt" stroke-linejoin="miter" stroke-miterlimit="10" stroke-dasharray="none" stroke-opacity="" data-original="#000000" class=""></path><path d="M0 0v60.25" style="stroke-width:30;stroke-linecap:butt;stroke-linejoin:miter;stroke-miterlimit:10;stroke-dasharray:none;stroke-opacity:1" transform="translate(256 286.125)" fill="none" stroke="#f385aa" stroke-width="30" stroke-linecap="butt" stroke-linejoin="miter" stroke-miterlimit="10" stroke-dasharray="none" stroke-opacity="" data-original="#000000" class=""></path><path d="m0 0-39.114-39.114" style="stroke-width:30;stroke-linecap:butt;stroke-linejoin:miter;stroke-miterlimit:10;stroke-dasharray:none;stroke-opacity:1" transform="translate(234.698 234.698)" fill="none" stroke="#f385aa" stroke-width="30" stroke-linecap="butt" stroke-linejoin="miter" stroke-miterlimit="10" stroke-dasharray="none" stroke-opacity="" data-original="#000000" class=""></path><path d="M0 0c-133.101 0-241 107.899-241 241S-133.101 482 0 482s241-107.899 241-241" style="stroke-width:30;stroke-linecap:square;stroke-linejoin:miter;stroke-miterlimit:3;stroke-dasharray:none;stroke-opacity:1" transform="translate(256 15)" fill="none" stroke="#f385aa" stroke-width="30" stroke-linecap="square" stroke-linejoin="miter" stroke-miterlimit="3" stroke-dasharray="none" stroke-opacity="" data-original="#000000" class=""></path></g></g></svg>