<svg xmlns="http://www.w3.org/2000/svg" version="1.1" xmlns:xlink="http://www.w3.org/1999/xlink" xmlns:svgjs="http://svgjs.com/svgjs" width="512" height="512" x="0" y="0" viewBox="0 0 512 512" style="enable-background:new 0 0 512 512" xml:space="preserve" class=""><g><path fill-rule="evenodd" d="m302.987 403.673 31.043 72.073 34.726-55.959 64.518 13.214-40.245-93.442c-25.177 10.744-23.47 15.505-38.878 39.066-11.45 17.507-31.054 26.782-51.164 25.048zM256 118.042l70.241 30.103v56.797c0 41.689-29.849 73.87-70.241 80.911-40.392-7.041-70.242-39.222-70.242-80.911v-56.797zm-9.319 90.165-15.855-15.854c-4.109-4.109-10.775-4.109-14.884 0s-4.109 10.775 0 14.884l23.32 23.319c4.109 4.109 10.775 4.109 14.884 0 14.056-14.056 27.952-28.27 41.943-42.391 4.08-4.117 4.067-10.761-.045-14.851-4.113-4.09-10.776-4.079-14.86.046zm33.099-184.17c37.271 27.898 28.819 24.822 75.302 27.408 17.854.993 32.355 13.16 36.434 30.571 10.619 45.328 6.121 37.538 40.067 69.399 13.039 12.238 16.326 30.879 8.259 46.838-21.002 41.549-19.44 32.691-13.915 78.917 2.122 17.755-7.342 34.149-23.78 41.189-42.796 18.328-35.906 12.546-61.387 51.51-9.787 14.965-27.575 21.439-44.692 16.266-44.565-13.468-35.57-13.468-80.135 0-17.117 5.173-34.905-1.301-44.692-16.266-25.482-38.963-18.591-33.181-61.387-51.51-16.438-7.04-25.902-23.434-23.78-41.189 5.525-46.226 7.087-37.369-13.915-78.917-8.067-15.959-4.78-34.6 8.259-46.838 33.946-31.861 29.449-24.07 40.068-69.399 4.078-17.411 18.579-29.578 36.434-30.571 46.483-2.586 38.031.491 75.302-27.408 14.313-10.716 33.243-10.716 47.558 0zM256 80.882c-66.862 0-121.065 54.203-121.065 121.065 0 66.863 54.203 121.065 121.065 121.065s121.065-54.203 121.065-121.065S322.863 80.882 256 80.882zM176.693 496l43.868-94.55c-23.855 7.209-49.071-1.968-62.711-22.825-8.515-13.02-14.899-28.117-29.462-34.895l-49.66 106.664 64.876-11.335z" clip-rule="evenodd" fill="#f385aa" data-original="#000000" class=""></path></g></svg>