<svg xmlns="http://www.w3.org/2000/svg" version="1.1" xmlns:xlink="http://www.w3.org/1999/xlink" xmlns:svgjs="http://svgjs.com/svgjs" width="512" height="512" x="0" y="0" viewBox="0 0 32 32" style="enable-background:new 0 0 512 512" xml:space="preserve" class=""><g><path d="M1.92 23.04v.01a3.593 3.593 0 0 0 2.66 3.44C4.93 29.03 7.09 31 9.73 31H16c.55 0 1-.45 1-1s-.45-1-1-1H9.73c-1.55 0-2.84-1.1-3.15-2.55 1.45-.46 2.52-1.81 2.52-3.41v-5.73c0-1.98-1.61-3.59-3.59-3.59-.55 0-1.07.14-1.54.36C4.48 7.89 9.68 3 16 3c3.22 0 6.25 1.26 8.54 3.54 2.04 2.05 3.26 4.7 3.49 7.55-.47-.23-.99-.37-1.54-.37-1.98 0-3.59 1.61-3.59 3.59v5.73c0 1.98 1.61 3.59 3.59 3.59 1.97 0 3.58-1.61 3.59-3.58v-7.97c0-3.75-1.47-7.29-4.13-9.96C23.28 2.46 19.75 1 16 1 8.24 1 1.92 7.31 1.92 15.08z" fill="#f385aa" data-original="#000000" class=""></path></g></svg>